 <svg  version="1.0" xmlns="http://www.w3.org/2000/svg"  width="300.000000pt" height="299.000000pt" viewBox="0 0 300.000000 299.000000"  preserveAspectRatio="xMidYMid meet">  <g transform="translate(0.000000,299.000000) scale(0.100000,-0.100000)" fill="#5ef1cf" stroke="none"> <path d="M1918 2516 c-37 -48 -52 -59 -123 -87 -109 -43 -169 -74 -243 -125 -36 -26 -74 -44 -90 -44 -35 0 -132 46 -207 99 -158 111 -287 124 -453 45 -79 -38 -211 -158 -271 -247 -73 -108 -141 -269 -141 -336 l0 -24 25 23 c14 13 25 35 25 49 0 41 26 115 70 203 77 154 155 237 280 297 70 34 81 36 165 35 106 -1 144 -15 265 -98 71 -48 171 -96 201 -96 6 0 -18 -26 -51 -57 -78 -71 -232 -276 -287 -379 -73 -138 -118 -281 -133 -424 -28 -256 40 -369 233 -387 114 -10 240 35 332 119 57 52 155 188 155 215 0 25 -38 -14 -56 -56 -24 -57 -93 -141 -141 -172 -132 -83 -329 -81 -411 4 -63 65 -82 165 -63 327 18 146 56 264 132 410 49 94 169 256 250 336 l61 61 69 5 c111 8 197 56 330 185 89 87 139 147 139 170 0 16 -27 -6 -62 -51z m-69 -103 c-30 -35 -144 -113 -193 -132 -53 -20 -146 -38 -146 -28 0 12 131 84 234 128 61 26 113 47 115 48 2 1 -3 -6 -10 -16z"/> <path d="M1991 2055 c-192 -43 -414 -217 -532 -416 -39 -66 -62 -149 -42 -149 21 0 45 41 47 78 3 47 68 163 130 230 136 147 416 264 501 208 22 -14 25 -23 25 -74 0 -80 -12 -118 -90 -282 -113 -241 -166 -361 -194 -442 -14 -42 -35 -97 -46 -122 -10 -25 -16 -46 -12 -46 4 0 25 24 47 53 60 79 145 160 190 181 21 11 69 21 106 24 65 4 67 4 106 -32 48 -43 63 -90 63 -200 0 -105 -16 -168 -66 -266 -50 -97 -118 -173 -184 -204 -37 -17 -62 -21 -141 -19 -115 2 -162 20 -198 76 l-25 38 -25 -25 -25 -26 20 -27 c50 -67 127 -91 262 -81 93 7 152 39 243 136 57 58 88 103 122 170 56 111 70 179 65 296 -5 106 -22 148 -76 189 -35 27 -41 28 -107 22 -90 -9 -149 -40 -237 -126 -38 -37 -68 -65 -68 -64 0 1 18 51 40 111 43 116 113 272 187 418 89 176 119 320 74 360 -27 24 -84 28 -160 11z"/> <path d="M1673 1838 c-19 -20 -20 -29 -13 -68 16 -83 23 -441 12 -560 -6 -63 -16 -176 -23 -250 -14 -163 -30 -251 -60 -319 -20 -48 -68 -101 -91 -101 -16 0 -80 69 -74 79 14 22 -13 19 -34 -4 -20 -22 -21 -27 -10 -54 14 -36 50 -61 85 -61 30 0 106 66 142 123 25 40 58 123 67 172 8 44 24 196 31 300 3 50 10 128 15 175 6 47 10 126 10 175 0 115 -20 398 -29 408 -4 4 -17 -3 -28 -15z"/> </g> </svg> 