<?xml version="1.0" encoding="UTF-8"?>
<!DOCTYPE svg PUBLIC "-//W3C//DTD SVG 1.1//EN" "http://www.w3.org/Graphics/SVG/1.1/DTD/svg11.dtd">
<svg xmlns="http://www.w3.org/2000/svg" version="1.1" width="393px" height="480px" style="shape-rendering:geometricPrecision; text-rendering:geometricPrecision; image-rendering:optimizeQuality; fill-rule:evenodd; clip-rule:evenodd" xmlns:xlink="http://www.w3.org/1999/xlink">
<g><path style="opacity:1" fill="#0a192F" d="M -0.5,-0.5 C 130.5,-0.5 261.5,-0.5 392.5,-0.5C 392.5,159.5 392.5,319.5 392.5,479.5C 261.5,479.5 130.5,479.5 -0.5,479.5C -0.5,319.5 -0.5,159.5 -0.5,-0.5 Z"/></g>
<g><path style="opacity:1" fill="#5ef1cf" d="M 190.5,277.5 C 191.338,277.842 191.672,278.508 191.5,279.5C 189.049,287.015 185.549,294.015 181,300.5C 175.956,305.876 171.289,311.542 167,317.5C 141.027,347.879 108.194,360.045 68.5,354C 45.5383,348.373 32.3716,333.873 29,310.5C 27.6521,287.334 28.9854,264.334 33,241.5C 40.3911,216.276 50.0577,191.942 62,168.5C 78.4066,142.423 96.7399,117.756 117,94.5C 130.053,83.9004 142.553,72.7337 154.5,61C 164.68,55.4128 174.346,49.0795 183.5,42C 201.107,33.219 219.273,25.719 238,19.5C 238.5,19.6667 239,19.8333 239.5,20C 236.833,22.6667 234.167,25.3333 231.5,28C 201.321,37.7562 173.321,51.7562 147.5,70C 136.701,79.1303 126.201,88.6303 116,98.5C 93.4245,125.43 74.4245,154.764 59,186.5C 57.7031,194.02 55.0364,201.02 51,207.5C 41.1227,237.393 37.456,268.06 40,299.5C 42.9105,323.412 56.0772,338.245 79.5,344C 102.287,347.775 123.954,344.441 144.5,334C 149.934,330.532 155.101,326.699 160,322.5C 169.381,311.737 176.714,299.737 182,286.5C 185.038,283.631 187.871,280.631 190.5,277.5 Z"/></g>
<g><path style="opacity:1" fill="#5ef1cf" d="M 192.5,281.5 C 193.833,262.167 193.833,242.833 192.5,223.5C 192.291,203.701 190.625,184.034 187.5,164.5C 189.907,160.585 192.907,157.085 196.5,154C 197.483,153.409 198.15,153.743 198.5,155C 199.188,159.855 200.021,164.688 201,169.5C 202.108,193.713 203.274,217.879 204.5,242C 204.375,263.919 202.875,285.753 200,307.5C 199.667,317.167 199.333,326.833 199,336.5C 196.363,351.377 194.696,366.377 194,381.5C 191.711,397.082 187.377,412.082 181,426.5C 176.817,432.862 172.15,438.862 167,444.5C 160.86,452.474 153.027,457.808 143.5,460.5C 132.425,457.588 126.092,450.422 124.5,439C 127.301,435.032 130.634,431.532 134.5,428.5C 136.619,437.451 141.619,444.284 149.5,449C 153.738,449.823 157.738,449.156 161.5,447C 164.333,443.5 167.167,440 170,436.5C 176.151,422.379 180.484,407.712 183,392.5C 183.677,377.035 185.344,361.702 188,346.5C 188.748,324.774 190.248,303.107 192.5,281.5 Z"/></g>
<g><path style="opacity:1" fill="#5ef1cf" d="M 192.5,223.5 C 193.833,242.833 193.833,262.167 192.5,281.5C 192.672,280.508 192.338,279.842 191.5,279.5C 191.672,278.508 191.338,277.842 190.5,277.5C 192.466,259.736 193.132,241.736 192.5,223.5 Z"/></g>
<g><path style="opacity:1" fill="#5ef1cf" d="M 275.5,107.5 C 285.391,105.717 294.058,108.051 301.5,114.5C 304.882,123.309 305.382,132.309 303,141.5C 300.567,151.029 297.567,160.362 294,169.5C 287,183.167 280,196.833 273,210.5C 269.723,218.055 266.723,225.722 264,233.5C 250.483,259.175 239.817,285.841 232,313.5C 245.44,297.712 260.94,284.546 278.5,274C 291.53,269.382 304.864,268.049 318.5,270C 321.468,273.147 324.802,275.814 328.5,278C 336.436,285.777 340.936,295.277 342,306.5C 342.667,317.5 342.667,328.5 342,339.5C 339.954,349.309 337.287,358.976 334,368.5C 329.333,377.833 324.667,387.167 320,396.5C 307.612,413.225 293.445,428.392 277.5,442C 258.794,452.173 238.794,455.507 217.5,452C 200.654,451.243 188.987,443.076 182.5,427.5C 185.317,424.182 188.317,421.015 191.5,418C 192.332,417.312 192.998,417.479 193.5,418.5C 202.566,435.704 216.9,443.538 236.5,442C 261.968,445.404 283.135,437.57 300,418.5C 303,414.5 306,410.5 309,406.5C 316.44,392.289 322.773,377.622 328,362.5C 328.109,357.944 329.109,353.611 331,349.5C 332.962,332.059 331.295,315.059 326,298.5C 324.748,296.999 323.748,295.332 323,293.5C 317.833,289 312.667,284.5 307.5,280C 289.436,277.674 272.77,281.34 257.5,291C 244.414,301.075 233.914,313.241 226,327.5C 222.833,330.667 219.667,333.833 216.5,337C 215.668,337.688 215.002,337.521 214.5,336.5C 223.588,313.422 232.421,290.089 241,266.5C 249.644,251.882 256.644,236.549 262,220.5C 269.255,206.99 276.255,193.323 283,179.5C 288.151,166.395 291.651,152.895 293.5,139C 293.552,123.892 285.886,116.725 270.5,117.5C 215.35,126.502 174.517,155.502 148,204.5C 144.689,212.244 143.689,220.244 145,228.5C 135.299,240.376 131.632,238.709 134,223.5C 140.597,208.218 148.93,193.884 159,180.5C 168.833,169.333 179.333,158.833 190.5,149C 210.654,132.425 232.987,119.758 257.5,111C 263.716,110.238 269.716,109.071 275.5,107.5 Z"/></g>
</svg>
